<svg width="181" height="210" viewBox="0 0 181 210" fill="none" xmlns="http://www.w3.org/2000/svg">
<rect x="16" y="65" width="142" height="142" rx="21" fill="white"/>
<rect x="16" y="65" width="142" height="142" rx="21" stroke="black" stroke-width="6"/>
<rect x="16" y="65" width="142" height="142" rx="21" stroke="black" stroke-width="6"/>
<rect x="16" y="65" width="142" height="142" rx="21" stroke="black" stroke-width="6"/>
<line x1="18" y1="109.168" x2="161" y2="109.168" stroke="black" stroke-width="6"/>
<mask id="path-4-inside-1_1122_12858" fill="white">
<path d="M89.9814 13.2686C104.126 0.824117 114.4 -4.22885 123.829 4.06738C133.259 12.3637 129.429 26.4559 115.285 38.9004C107.427 45.8139 99.9259 49.6689 93.1934 50.3086C83.1523 52.3956 69.6211 48.1806 58.9277 38.7725C44.7834 26.328 40.6466 12.9184 50.0762 4.62207C59.5058 -3.67424 70.7658 1.05065 84.9102 13.4951C85.7316 14.2179 86.5455 14.9398 87.3486 15.6592C88.1934 14.8664 89.0715 14.0691 89.9814 13.2686Z"/>
</mask>
<path d="M89.9814 13.2686C104.126 0.824117 114.4 -4.22885 123.829 4.06738C133.259 12.3637 129.429 26.4559 115.285 38.9004C107.427 45.8139 99.9259 49.6689 93.1934 50.3086C83.1523 52.3956 69.6211 48.1806 58.9277 38.7725C44.7834 26.328 40.6466 12.9184 50.0762 4.62207C59.5058 -3.67424 70.7658 1.05065 84.9102 13.4951C85.7316 14.2179 86.5455 14.9398 87.3486 15.6592C88.1934 14.8664 89.0715 14.0691 89.9814 13.2686Z" fill="#FF6B54"/>
<path d="M89.9814 13.2686L86.0181 8.76387L86.0181 8.76388L89.9814 13.2686ZM123.829 4.06738L127.792 -0.437305L127.792 -0.437319L123.829 4.06738ZM115.285 38.9004L119.248 43.4051L119.248 43.4051L115.285 38.9004ZM93.1934 50.3086L92.6258 44.3355L92.2964 44.3668L91.9724 44.4341L93.1934 50.3086ZM58.9277 38.7725L54.9644 43.2771L54.9645 43.2772L58.9277 38.7725ZM50.0762 4.62207L46.1129 0.117382L46.1129 0.117388L50.0762 4.62207ZM84.9102 13.4951L88.8735 8.99043L88.8735 8.99043L84.9102 13.4951ZM87.3486 15.6592L83.3454 20.1284L87.443 23.7988L91.4544 20.0344L87.3486 15.6592ZM89.9814 13.2686L93.9448 17.7732C100.961 11.6 106.272 7.97146 110.518 6.59966C112.511 5.95576 114.07 5.87957 115.383 6.14017C116.685 6.39888 118.16 7.07166 119.866 8.57208L123.829 4.06738L127.792 -0.437319C124.783 -3.08501 121.438 -4.8917 117.72 -5.62998C114.012 -6.36638 110.351 -5.9571 106.829 -4.81923C100.045 -2.62749 93.1459 2.49269 86.0181 8.76387L89.9814 13.2686ZM123.829 4.06738L119.866 8.57207C122.688 11.0554 123.645 14.2491 122.58 18.4572C121.432 22.9986 117.852 28.6506 111.322 34.3957L115.285 38.9004L119.248 43.4051C126.863 36.7057 132.269 29.0894 134.214 21.3994C136.243 13.3763 134.399 5.37566 127.792 -0.437305L123.829 4.06738ZM115.285 38.9004L111.322 34.3957C103.939 40.8916 97.5906 43.8637 92.6258 44.3355L93.1934 50.3086L93.7609 56.2817C102.261 55.474 110.916 50.7362 119.248 43.4051L115.285 38.9004ZM93.1934 50.3086L91.9724 44.4341C84.2723 46.0346 72.5948 42.8052 62.891 34.2678L58.9277 38.7725L54.9645 43.2772C66.6474 53.556 82.0323 58.7567 94.4144 56.183L93.1934 50.3086ZM58.9277 38.7725L62.891 34.2678C56.2864 28.4569 52.6454 22.9391 51.4498 18.561C50.3692 14.6044 51.2114 11.6149 54.0395 9.12675L50.0762 4.62207L46.1129 0.117388C39.5114 5.92551 37.7071 13.789 39.8737 21.7224C41.9252 29.2343 47.4248 36.6436 54.9644 43.2771L58.9277 38.7725ZM50.0762 4.62207L54.0395 9.12676C57.0942 6.43919 60.0934 5.87505 64.0274 7.03561C68.4915 8.35255 74.0345 11.9182 80.9469 17.9998L84.9102 13.4951L88.8735 8.99043C81.6415 2.62758 74.4822 -2.39145 67.4228 -4.47401C59.8334 -6.71293 52.4878 -5.49136 46.1129 0.117382L50.0762 4.62207ZM84.9102 13.4951L80.9468 17.9998C81.7563 18.712 82.5568 19.422 83.3454 20.1284L87.3486 15.6592L91.3519 11.19C90.5342 10.4575 89.707 9.72376 88.8735 8.99043L84.9102 13.4951ZM87.3486 15.6592L91.4544 20.0344C92.2502 19.2876 93.0807 18.5334 93.9448 17.7732L89.9814 13.2686L86.0181 8.76388C85.0623 9.6048 84.1366 10.4453 83.2429 11.2839L87.3486 15.6592Z" fill="black" mask="url(#path-4-inside-1_1122_12858)"/>
<rect x="8" y="65" width="158" height="44" fill="white" stroke="black" stroke-width="6"/>
</svg>
